<svg xmlns="http://www.w3.org/2000/svg" viewBox="0 0 64 64" fill="none">
  <defs>
    <linearGradient id="m" x1="8" y1="6" x2="58" y2="58" gradientUnits="userSpaceOnUse">
      <stop stop-color="#7C5CFF"/><stop offset=".48" stop-color="#E14DFF"/><stop offset="1" stop-color="#3EC6FF"/>
    </linearGradient>
  </defs>
  <path fill="url(#m)" d="M18 8c8 0 12 6 14 12 2-6 6-12 14-12 8 0 12 6 10 14-2 8-10 12-16 18 6 2 14 6 16 14 2 8-2 12-10 12-8 0-12-6-14-12-2 6-6 12-14 12-8 0-12-4-10-12 2-8 10-12 16-18-6-6-14-10-16-18C6 14 10 8 18 8z"/>
</svg>
