<svg xmlns="http://www.w3.org/2000/svg" viewBox="0 0 640 420" role="img" aria-labelledby="title desc">
  <title id="title">PlayStation gift card</title>
  <desc id="desc">A clean blue PlayStation gift card with the recognizable PS monogram and PlayStation wordmark.</desc>
  <defs>
    <linearGradient id="play-bg" x1="0" y1="0" x2="1" y2="1">
      <stop offset="0" stop-color="#081b4b"/>
      <stop offset="0.55" stop-color="#1261b8"/>
      <stop offset="1" stop-color="#39b9e8"/>
    </linearGradient>
    <linearGradient id="play-glow" x1="0" y1="0" x2="1" y2="0">
      <stop offset="0" stop-color="#fff" stop-opacity="0"/>
      <stop offset="0.5" stop-color="#fff" stop-opacity=".24"/>
      <stop offset="1" stop-color="#fff" stop-opacity="0"/>
    </linearGradient>
  </defs>
  <rect width="640" height="420" rx="42" fill="#061536"/>
  <rect x="22" y="22" width="596" height="376" rx="32" fill="url(#play-bg)"/>
  <path d="M48 320c120-60 278-68 544-10v70H48z" fill="#061536" opacity=".28"/>
  <path d="M50 108h540" stroke="url(#play-glow)" stroke-width="3"/>
  <g fill="#fff" transform="translate(92 74)">
    <path d="M20 12v129l32 10V70l25 8c13 4 20 11 20 22 0 12-8 17-20 13l-17-5v31l30 9c32 9 53-8 53-39 0-30-18-49-52-59z"/>
    <path d="M129 145c-24 6-38 15-38 28 0 13 17 20 42 13l91-27v-31z"/>
    <path d="M129 145l64-19c14-4 23-1 23 6 0 7-8 13-22 17l-65 19z" opacity=".78"/>
  </g>
  <text x="385" y="251" fill="#fff" text-anchor="middle" font-family="Arial, Helvetica, sans-serif" font-size="42" font-weight="700" letter-spacing="1">PlayStation</text>
  <text x="385" y="301" fill="#fff" fill-opacity=".82" text-anchor="middle" font-family="Arial, Helvetica, sans-serif" font-size="18" letter-spacing="4">GIFT CARD</text>
  <circle cx="552" cy="82" r="18" fill="#fff" fill-opacity=".15"/>
  <circle cx="552" cy="82" r="6" fill="#fff" fill-opacity=".8"/>
</svg>